<?xml version="1.0" standalone="no"?>
<!DOCTYPE svg PUBLIC "-//W3C//DTD SVG 20010904//EN"
 "http://www.w3.org/TR/2001/REC-SVG-20010904/DTD/svg10.dtd">
<svg version="1.0" xmlns="http://www.w3.org/2000/svg"
 width="297.000000pt" height="283.000000pt" viewBox="0 0 297.000000 283.000000"
 preserveAspectRatio="xMidYMid meet">

<g transform="translate(0.000000,283.000000) scale(0.100000,-0.100000)"
fill="#000000" stroke="none">
<path d="M1329 2379 c-81 -12 -170 -43 -279 -100 -95 -49 -253 -167 -282 -211
-9 -13 -28 -36 -43 -53 -40 -45 -142 -253 -172 -352 -23 -78 -26 -105 -26
-238 -1 -202 31 -342 114 -507 46 -92 173 -253 191 -242 5 3 7 0 6 -7 -5 -20
128 -116 227 -164 108 -53 210 -80 352 -96 118 -12 187 -8 311 21 198 47 407
182 527 343 62 81 126 190 128 216 1 12 5 21 9 21 4 0 4 7 1 17 -4 9 -2 14 4
10 6 -4 9 22 10 69 l0 75 -27 -79 c-70 -209 -239 -410 -440 -526 -145 -84
-280 -118 -457 -117 -419 4 -777 290 -884 706 -31 120 -34 374 -6 475 23 80
66 178 90 205 10 11 20 30 23 42 4 13 10 23 15 23 5 0 9 6 10 13 0 6 22 41 48
77 54 74 174 180 235 206 23 10 44 23 48 29 5 6 8 6 8 0 0 -5 4 -4 9 3 7 12
27 19 59 21 7 1 10 5 7 11 -3 6 1 7 9 4 9 -3 16 -1 16 6 0 6 4 8 10 5 5 -3 28
0 50 6 29 9 37 15 28 22 -9 6 -5 7 12 3 32 -7 106 4 90 14 -6 4 24 6 67 4 62
-2 70 -1 38 5 -22 5 -53 14 -70 19 -29 10 -29 11 12 9 22 -1 39 -5 36 -9 -2
-5 26 -9 64 -9 52 -1 61 -3 38 -9 -26 -7 -24 -8 20 -9 28 0 56 3 64 8 8 5 21
7 29 3 13 -4 12 -7 -3 -12 -11 -4 9 -7 43 -7 34 -1 69 -6 76 -12 8 -7 18 -11
22 -9 5 1 23 -5 40 -15 17 -9 44 -18 59 -21 16 -3 31 -9 34 -14 3 -5 35 -26
71 -48 85 -51 256 -221 305 -303 21 -36 53 -98 71 -138 22 -52 33 -69 38 -57
8 21 -76 197 -110 231 -13 13 -23 26 -21 28 1 3 -18 30 -42 60 -57 71 -147
149 -162 139 -8 -4 -9 -3 -5 4 8 13 -70 66 -84 57 -6 -4 -7 2 -3 12 3 10 3 15
-2 11 -4 -4 -13 -1 -19 6 -12 15 -149 76 -171 76 -8 0 -17 5 -21 11 -4 8 1 9
16 4 14 -4 20 -3 16 3 -17 28 -348 50 -477 31z m-12 -55 c-3 -3 -12 -4 -19 -1
-8 3 -5 6 6 6 11 1 17 -2 13 -5z m-147 -14 c-8 -5 -19 -10 -25 -10 -5 0 -3 5
5 10 8 5 20 10 25 10 6 0 3 -5 -5 -10z m-260 -144 c0 -2 -8 -10 -17 -17 -16
-13 -17 -12 -4 4 13 16 21 21 21 13z m1341 -163 c13 -16 12 -17 -3 -4 -10 7
-18 15 -18 17 0 8 8 3 21 -13z m-1436 -1263 c21 -22 37 -40 34 -40 -3 0 -23
18 -44 40 -21 22 -37 40 -34 40 3 0 23 -18 44 -40z"/>
<path d="M1048 1841 c-131 -75 -240 -140 -244 -144 -7 -6 125 -247 135 -247 3
0 19 23 34 51 44 77 92 121 129 117 46 -5 68 -42 80 -134 35 -280 58 -351 149
-447 l54 -57 127 73 c70 39 128 74 128 77 0 3 -25 21 -55 40 -30 19 -55 42
-55 51 0 24 34 117 64 177 l27 53 41 -23 c22 -13 74 -54 114 -91 73 -68 73
-68 87 -45 32 52 57 100 57 108 0 15 -65 32 -158 39 -51 4 -98 13 -104 19 -17
17 12 72 69 133 52 55 89 79 126 79 37 0 99 -53 163 -139 45 -61 62 -77 70
-68 14 15 134 227 134 235 0 4 -105 66 -233 139 -196 112 -233 130 -238 115
-4 -9 -21 -62 -38 -117 -18 -55 -52 -140 -77 -190 -45 -90 -150 -253 -199
-310 l-25 -30 -41 45 c-22 25 -57 70 -78 100 -141 204 -114 299 80 288 38 -2
69 -2 69 0 0 14 -137 242 -145 241 -5 0 -117 -62 -247 -138z"/>
<path d="M2417 1686 c-10 -25 -9 -28 5 -20 8 5 9 2 5 -9 -3 -10 -2 -17 3 -17
12 0 12 17 1 44 -7 18 -8 18 -14 2z"/>
<path d="M2436 1615 c-3 -8 -1 -15 4 -15 6 0 10 7 10 15 0 8 -2 15 -4 15 -2 0
-6 -7 -10 -15z"/>
<path d="M2452 1570 c0 -14 2 -19 5 -12 2 6 2 18 0 25 -3 6 -5 1 -5 -13z"/>
<path d="M2462 1510 c0 -14 2 -19 5 -12 2 6 2 18 0 25 -3 6 -5 1 -5 -13z"/>
<path d="M2422 1340 c0 -14 2 -19 5 -12 2 6 2 18 0 25 -3 6 -5 1 -5 -13z"/>
<path d="M2422 1275 c0 -16 2 -22 5 -12 2 9 2 23 0 30 -3 6 -5 -1 -5 -18z"/>
<path d="M1037 963 c-4 -3 -7 -12 -7 -20 0 -11 82 -13 450 -13 443 0 450 0
450 20 0 20 -7 20 -443 20 -244 0 -447 -3 -450 -7z"/>
<path d="M1080 879 c0 -6 9 -13 20 -16 25 -7 25 -6 0 -71 -23 -60 -25 -85 -7
-80 6 3 24 36 39 73 20 54 32 71 52 78 45 15 28 27 -39 27 -40 0 -65 -4 -65
-11z"/>
<path d="M1216 867 c-27 -43 -49 -127 -37 -141 12 -15 117 -17 138 -3 7 4 21
3 32 -3 31 -16 56 -12 79 13 27 29 28 47 2 80 -28 35 -26 51 6 43 21 -6 25 -4
22 11 -4 22 -53 30 -74 12 -20 -16 -18 -42 7 -73 23 -30 22 -59 -4 -64 -11 -2
-20 6 -27 22 -12 33 -19 33 -46 -1 -33 -41 -40 -21 -15 45 11 33 21 64 21 69
0 6 -20 11 -45 11 -36 1 -48 -3 -59 -21z m56 -13 c9 -8 -21 -91 -38 -105 -25
-20 -28 -1 -10 56 15 49 32 66 48 49z"/>
<path d="M1505 878 c-29 -79 -52 -158 -47 -162 12 -13 21 -4 37 37 10 28 23
43 35 44 16 1 18 -5 17 -40 l-2 -42 39 0 39 0 28 84 c16 47 27 87 24 89 -12
12 -33 -11 -44 -49 -7 -24 -20 -56 -27 -71 -18 -34 -39 -38 -28 -5 4 12 7 31
6 41 0 10 6 28 14 40 7 11 14 26 14 33 0 23 -21 14 -38 -17 -22 -39 -56 -42
-42 -4 13 33 13 34 -5 34 -9 0 -18 -6 -20 -12z"/>
<path d="M1740 882 c0 -4 6 -14 13 -21 10 -10 8 -15 -6 -25 -9 -8 -15 -20 -12
-28 8 -19 -11 -68 -26 -68 -7 0 -18 8 -25 18 -9 12 -16 14 -24 6 -8 -8 -6 -17
8 -34 27 -34 68 -21 89 28 8 20 21 41 29 45 9 5 12 17 8 31 -4 18 -1 25 15 29
11 2 22 3 24 0 3 -2 -4 -31 -16 -63 -20 -55 -20 -60 -5 -77 16 -18 16 -19 -2
-31 -26 -16 -25 -38 1 -52 16 -9 26 -8 45 5 13 8 24 22 24 30 0 8 14 22 30 30
30 16 59 59 47 71 -3 4 -17 -7 -32 -22 l-25 -29 25 71 c29 82 30 94 11 94 -7
0 -23 -27 -36 -62 -25 -70 -36 -88 -56 -88 -9 0 -7 18 12 72 13 39 24 73 24
75 0 2 -31 3 -70 3 -38 0 -70 -4 -70 -8z m105 -212 c-3 -5 -11 -10 -16 -10 -6
0 -7 5 -4 10 3 6 11 10 16 10 6 0 7 -4 4 -10z"/>
</g>
</svg>
